<?xml version="1.0" standalone="no"?>
<!DOCTYPE svg PUBLIC "-//W3C//DTD SVG 20010904//EN"
 "http://www.w3.org/TR/2001/REC-SVG-20010904/DTD/svg10.dtd">
<svg version="1.0" xmlns="http://www.w3.org/2000/svg"
 width="1200.000000pt" height="800.000000pt" viewBox="0 0 1200.000000 800.000000"
 preserveAspectRatio="xMidYMid meet">

<g transform="translate(0.000000,800.000000) scale(0.100000,-0.100000)"
fill="#000000" stroke="none">
<path d="M0 4000 l0 -4000 1004 0 1004 0 27 32 27 32 19 -25 c10 -13 19 -28
19 -32 0 -5 10 -7 22 -5 29 4 92 111 245 418 64 129 169 341 233 470 205 411
264 499 375 550 60 28 241 40 309 21 73 -21 116 -43 116 -61 0 -9 -19 -41 -41
-71 -56 -73 -82 -133 -74 -168 8 -37 121 -146 200 -193 76 -46 171 -78 229
-78 87 0 264 68 310 119 11 12 23 21 28 21 5 0 20 -25 34 -55 54 -118 22 -254
-87 -366 -46 -48 -49 -53 -49 -104 0 -90 -35 -177 -92 -231 l-49 -46 -2 -114
-2 -114 4098 0 4097 0 0 4000 0 4000 -6000 0 -6000 0 0 -4000z m6376 1667
c284 -94 474 -371 531 -772 21 -149 13 -408 -17 -558 -69 -349 -243 -587 -500
-685 -96 -37 -272 -52 -372 -31 -154 31 -303 124 -400 249 -235 301 -296 852
-143 1282 65 180 179 338 311 429 66 45 171 92 239 106 92 19 264 10 351 -20z
m1437 -16 c99 -26 166 -62 237 -128 104 -96 145 -209 138 -383 -7 -180 -64
-282 -222 -393 -18 -13 -15 -15 29 -37 69 -33 156 -123 193 -200 35 -71 62
-191 62 -276 0 -85 -28 -202 -68 -284 -121 -252 -402 -353 -887 -321 -100 6
-191 14 -203 18 l-22 5 0 993 0 993 23 5 c12 3 72 10 132 16 61 6 124 13 140
15 17 3 107 3 200 1 128 -3 189 -9 248 -24z m-2553 -636 c0 -346 -4 -687 -10
-757 -28 -367 -141 -550 -384 -626 -101 -31 -381 -13 -431 28 -8 7 -7 54 7
182 10 95 20 178 22 185 4 8 17 7 53 -4 68 -22 189 -21 232 1 79 41 112 105
131 246 5 42 10 367 10 732 l0 658 178 2 c106 2 180 -1 184 -7 4 -5 7 -293 8
-640z"/>
<path d="M6080 5311 c-104 -34 -186 -127 -239 -273 -50 -135 -71 -355 -52
-528 22 -197 72 -329 159 -422 70 -75 110 -93 212 -93 74 0 91 3 131 27 73 43
155 158 187 263 62 200 68 465 15 685 -33 140 -125 279 -214 325 -38 20 -158
30 -199 16z"/>
<path d="M7448 5323 c-17 -4 -18 -24 -18 -229 l0 -224 88 0 c123 0 185 20 243
79 39 38 49 56 59 105 10 51 10 68 -5 121 -30 114 -101 156 -259 154 -50 -1
-99 -3 -108 -6z"/>
<path d="M7430 4254 l0 -276 128 4 c114 3 131 6 172 30 55 31 106 95 121 151
6 23 9 76 7 118 -4 62 -10 85 -33 121 -55 87 -151 128 -302 128 l-93 0 0 -276z"/>
</g>
</svg>
